<svg width="24" height="24" viewBox="0 0 24 24" fill="none" xmlns="http://www.w3.org/2000/svg">
<circle cx="12" cy="12" r="12" fill="#1654C2"/>
<path d="M13.07 12.295C14.188 11.099 14.747 10.046 14.747 9.149C14.747 8.291 14.461 7.589 13.876 7.043C13.291 6.497 12.55 6.224 11.653 6.224C10.444 6.224 9.339 6.705 8.364 7.68L9.326 8.954C10.093 8.239 10.821 7.888 11.523 7.888C12.342 7.888 12.953 8.434 12.953 9.214C12.953 9.695 12.576 10.332 12.303 10.657C12.16 10.813 11.952 11.047 11.653 11.346L8.65 14.531V16H14.851V14.375H11.12L13.07 12.295Z" fill="white"/>
</svg>
