<svg width="24" height="24" viewBox="0 0 24 24" fill="none" xmlns="http://www.w3.org/2000/svg">
<circle cx="12" cy="12" r="12" fill="#1654C2"/>
<path d="M11.276 16.156C12.29 16.156 13.109 15.896 13.746 15.363C14.383 14.83 14.708 14.154 14.708 13.322C14.708 12.165 14.006 11.216 12.823 10.956V10.904C13.772 10.579 14.461 9.76 14.461 8.733C14.461 8.018 14.175 7.433 13.59 6.952C13.018 6.471 12.303 6.224 11.432 6.224C10.288 6.224 9.157 6.666 8.416 7.381L9.274 8.655C9.989 8.148 10.639 7.888 11.237 7.888C12.056 7.888 12.654 8.343 12.654 9.084C12.654 9.812 12.056 10.319 11.12 10.319H10.041V11.905H11.263C12.212 11.905 12.862 12.438 12.862 13.218C12.862 13.985 12.238 14.518 11.198 14.518C10.496 14.518 9.742 14.271 8.949 13.777L8.195 15.207C9.183 15.844 10.21 16.156 11.276 16.156Z" fill="white"/>
</svg>
